<?xml version="1.0" standalone="no"?><!DOCTYPE svg PUBLIC "-//W3C//DTD SVG 1.1//EN" "http://www.w3.org/Graphics/SVG/1.1/DTD/svg11.dtd"><svg t="1668140561368" class="icon" viewBox="0 0 1024 1024" version="1.1" xmlns="http://www.w3.org/2000/svg" p-id="3009" xmlns:xlink="http://www.w3.org/1999/xlink" width="200" height="200"><path d="M597.333333 981.333333h-89.6c-102.4-12.8-192-68.266667-243.2-145.066666l-123.733333-187.733334c-42.666667-46.933333-42.666667-119.466667 4.266667-162.133333 42.666667-42.666667 110.933333-46.933333 157.866666-8.533333V234.666667C298.666667 174.933333 345.6 128 405.333333 128c8.533333 0 17.066667 0 21.333334 4.266667 8.533333-51.2 55.466667-89.6 106.666666-89.6s98.133333 38.4 106.666667 89.6c4.266667-4.266667 12.8-4.266667 21.333333-4.266667 51.2 0 98.133333 38.4 106.666667 89.6 4.266667-4.266667 12.8-4.266667 21.333333-4.266667C849.066667 213.333333 896 260.266667 896 320V682.666667c0 166.4-132.266667 298.666667-298.666667 298.666666z m-81.066666-85.333333H597.333333c119.466667 0 213.333333-93.866667 213.333334-213.333333V320c0-12.8-8.533333-21.333333-21.333334-21.333333s-21.333333 8.533333-21.333333 21.333333V512c0 25.6-17.066667 42.666667-42.666667 42.666667s-42.666667-17.066667-42.666666-42.666667V234.666667c0-12.8-8.533333-21.333333-21.333334-21.333334s-21.333333 8.533333-21.333333 21.333334V512c0 25.6-17.066667 42.666667-42.666667 42.666667s-42.666667-17.066667-42.666666-42.666667V149.333333c0-12.8-8.533333-21.333333-21.333334-21.333333s-21.333333 8.533333-21.333333 21.333333V512c0 25.6-17.066667 42.666667-42.666667 42.666667s-42.666667-17.066667-42.666666-42.666667V234.666667c0-12.8-8.533333-21.333333-21.333334-21.333334s-21.333333 8.533333-21.333333 21.333334v341.333333c0 4.266667 0 8.533333-4.266667 12.8 0 4.266667-4.266667 8.533333-8.533333 12.8-4.266667 4.266667-8.533333 8.533333-12.8 8.533333s-8.533333 4.266667-17.066667 4.266667c-4.266667 0-12.8 0-17.066666-4.266667-4.266667 0-8.533333-4.266667-12.8-8.533333l-64-64c-12.8-12.8-34.133333-12.8-46.933334 0-12.8 12.8-12.8 34.133333 0 46.933333 0 0 4.266667 4.266667 4.266667 8.533334l128 192c38.4 59.733333 106.666667 98.133333 183.466667 110.933333z" p-id="3010"></path></svg>